<svg width="667" height="202" viewBox="0 0 667 202" fill="none" xmlns="http://www.w3.org/2000/svg">
<g filter="url(#filter0_dd_618_186)">
<path d="M384.078 40.2018H384.8C386.967 40.2018 388.652 39.4603 389.856 37.7301H394.671V44.898H378.3V52.313H392.504C390.097 55.5262 388.893 57.0092 388.893 57.0092C388.171 57.5035 387.449 57.7507 386.486 57.7507H378.541V65.9072H389.856C391.782 65.9072 393.467 65.1657 394.43 63.6827L399.004 57.7507L402.856 63.6827C403.819 65.1657 405.745 65.9072 408.153 65.9072H418.023V57.7507H411.523C410.56 57.7507 409.597 57.5035 408.875 57.0092C408.875 57.0092 407.671 55.5262 405.264 52.313H418.505V47.1225L425.727 64.177C426.449 65.66 427.653 66.6487 429.338 66.6487H445.227C446.672 66.6487 448.116 65.66 448.838 64.177L457.746 43.4149V43.1678C458.709 40.4489 459.431 37.7301 459.431 34.7641C459.431 22.4057 449.561 12.0247 437.523 12.0247C426.931 12.0247 418.023 19.934 415.856 30.0679H393.467L395.393 25.866H389.134C386.967 25.866 384.8 27.1019 383.837 29.3264L383.115 30.8094C382.634 31.7981 381.912 32.5396 380.708 32.5396H377.578V34.0226C378.06 37.2358 380.708 40.2018 384.078 40.2018ZM437.764 19.6869C445.709 19.6869 452.209 26.3604 452.209 34.5169C452.209 36.4943 451.968 38.2244 451.246 40.2018L443.301 58.7393H441.616V49.347C444.264 47.864 446.19 44.898 446.19 41.6848C446.19 39.4603 444.505 37.7301 442.338 37.7301C440.172 37.7301 438.486 39.4603 438.486 41.6848C438.486 42.1791 438.246 42.4263 437.764 42.4263C437.283 42.4263 437.042 42.1791 437.042 41.6848C437.042 39.4603 435.357 37.7301 433.19 37.7301C431.023 37.7301 429.338 39.4603 429.338 41.6848C429.338 44.898 431.023 47.864 433.912 49.347V58.7393H432.227L424.282 40.2018C423.56 38.4716 423.319 36.4943 423.319 34.7641C423.319 26.3604 429.82 19.6869 437.764 19.6869ZM403.578 37.7301H415.856C416.097 39.4603 416.579 41.1904 417.301 42.9206L418.023 44.898H403.578V37.7301Z" fill="white" stroke="white" stroke-width="20" stroke-miterlimit="10" stroke-linecap="round" stroke-linejoin="round"/>
<path d="M387.208 70.6038C383.838 70.6038 381.189 73.3226 381.189 76.783V99.7695C381.189 103.23 383.838 105.949 387.208 105.949H444.987C449.561 105.949 451.728 103.971 451.728 100.017V76.783C451.728 73.3226 449.079 70.6038 445.709 70.6038H387.208ZM442.579 95.8149C442.579 97.2979 441.857 97.7922 440.172 97.7922H390.338V91.8602H442.338L442.579 95.8149ZM442.579 84.6923H390.578V78.7603H442.579V84.6923Z" fill="white" stroke="white" stroke-width="20" stroke-miterlimit="10" stroke-linecap="round" stroke-linejoin="round"/>
<path d="M37.4076 107.432V42.4269L43.4262 26.1138H33.5557L28.5001 40.2023C27.7779 42.1797 27.0556 42.9212 25.8519 42.9212H22V51.8193H27.7779V107.432H37.4076Z" fill="white" stroke="white" stroke-width="20" stroke-miterlimit="10" stroke-linecap="round" stroke-linejoin="round"/>
<path d="M57.1493 98.7806L61.0012 80.7373H51.3714L48.7232 94.3315C48.001 96.3089 47.5195 97.0504 46.7973 97.0504H42.4639V105.207H49.9269C53.5381 105.207 55.9455 102.982 57.1493 98.7806Z" fill="white" stroke="white" stroke-width="20" stroke-miterlimit="10" stroke-linecap="round" stroke-linejoin="round"/>
<path d="M53.2963 58.9862H66.778V68.1314H42.9443V76.5351H66.778V107.431H76.6485V76.5351H100.964V68.1314H76.6485V58.9862H92.0561C96.6303 58.9862 98.797 56.7617 98.797 52.3127V34.5166C98.797 31.0562 96.1488 28.3374 92.7784 28.3374H53.2963C49.9259 28.3374 47.2777 31.0562 47.2777 34.5166V53.0542C47.2777 56.2674 49.9259 58.9862 53.2963 58.9862ZM56.9075 35.9996H89.1672V48.8523C89.1672 50.5825 88.445 51.324 87.482 51.324H56.9075V35.9996Z" fill="white" stroke="white" stroke-width="20" stroke-miterlimit="10" stroke-linecap="round" stroke-linejoin="round"/>
<path d="M96.1511 94.3315L92.2992 80.7373H82.4287L87.4843 99.2749C88.4473 103.23 90.8548 105.207 94.7067 105.207H101.207V96.8032H98.3178C97.3548 96.8032 96.6326 96.0617 96.1511 94.3315Z" fill="white" stroke="white" stroke-width="20" stroke-miterlimit="10" stroke-linecap="round" stroke-linejoin="round"/>
<path d="M137.799 105.949H143.577C147.429 105.949 149.355 103.724 149.355 99.2753V60.4699H156.577V95.8149C156.577 96.8036 155.855 97.0508 154.892 97.0508H151.762V103.971H157.299C160.67 103.971 163.318 101.253 163.318 97.7923V60.4699C163.318 56.2681 160.188 53.0549 156.095 53.0549H149.355V42.6738H166.207L170.54 80.4905H165.725V88.8942H171.503L172.707 100.017C172.947 103.971 174.873 105.949 178.244 105.949H189.559V97.7923H181.614C181.133 97.7923 180.892 97.5451 180.892 96.8036L179.929 88.8942H182.337C184.022 88.8942 185.466 88.3999 186.67 87.164C187.874 85.9282 188.596 84.198 188.596 82.2207V49.3474H181.374V76.783C181.374 79.5018 180.892 80.7377 179.929 80.7377H178.966L174.392 42.921H189.559V35.506H186.911L185.707 27.8437H177.522L178.725 35.506H173.429L172.466 26.6079H164.521L165.484 35.506H147.669C144.299 35.506 141.651 38.2248 141.651 41.6852V96.8036C141.651 97.7923 141.41 98.0394 140.929 98.0394H137.799V105.949Z" fill="white" stroke="white" stroke-width="20" stroke-miterlimit="10" stroke-linecap="round" stroke-linejoin="round"/>
<path d="M117.816 78.7603C114.446 78.7603 111.798 81.4791 111.798 84.9395V100.017C111.798 103.477 114.446 106.196 117.816 106.196H131.298C135.15 106.196 137.076 104.219 137.076 100.758V85.1866C137.076 81.7263 134.428 79.0074 131.057 79.0074L117.816 78.7603ZM129.131 96.5564C129.131 98.0394 128.409 98.5337 127.205 98.5337H119.742V86.1753H129.372L129.131 96.5564Z" fill="white" stroke="white" stroke-width="20" stroke-miterlimit="10" stroke-linecap="round" stroke-linejoin="round"/>
<path d="M135.875 27.5959H112.522V34.5167H135.875V27.5959Z" fill="white" stroke="white" stroke-width="20" stroke-miterlimit="10" stroke-linecap="round" stroke-linejoin="round"/>
<path d="M138.037 39.9546H110.833V48.1112H138.037V39.9546Z" fill="white" stroke="white" stroke-width="20" stroke-miterlimit="10" stroke-linecap="round" stroke-linejoin="round"/>
<path d="M137.317 65.6602H111.798V73.3225H137.317V65.6602Z" fill="white" stroke="white" stroke-width="20" stroke-miterlimit="10" stroke-linecap="round" stroke-linejoin="round"/>
<path d="M137.317 53.0542H111.798V60.7165H137.317V53.0542Z" fill="white" stroke="white" stroke-width="20" stroke-miterlimit="10" stroke-linecap="round" stroke-linejoin="round"/>
<path d="M207.134 89.3886V98.5338C207.134 101.994 209.782 104.713 213.153 104.713H240.597C244.449 104.713 246.375 102.983 246.375 99.5225V90.6244C246.375 87.1641 243.727 84.4452 240.357 84.4452H213.153C213.393 83.4565 213.634 82.4679 213.634 80.9849V78.266H238.912C243.968 78.266 246.375 76.2887 246.375 72.334V52.0662C246.375 47.8644 243.246 44.6512 239.153 44.6512H231.449V40.2021H221.579V44.6512H205.208V79.5019C205.208 80.7377 204.486 81.232 203.041 81.232H199.671V89.6357H205.208C205.69 89.6357 206.412 89.6357 207.134 89.3886ZM215.319 91.3659H238.431V95.5678C238.431 96.8036 237.468 97.7923 236.264 97.7923H215.079L215.319 91.3659ZM213.634 51.5719H232.653H238.19V58.2454H213.634V51.5719ZM213.634 64.6718H238.19V69.6151C238.19 70.6038 237.468 70.851 236.023 70.851H213.634V64.6718Z" fill="white" stroke="white" stroke-width="20" stroke-miterlimit="10" stroke-linecap="round" stroke-linejoin="round"/>
<path d="M261.3 32.0449H253.114V92.601H261.3V32.0449Z" fill="white" stroke="white" stroke-width="20" stroke-miterlimit="10" stroke-linecap="round" stroke-linejoin="round"/>
<path d="M254.076 105.701H268.039C270.206 105.701 271.891 104.96 273.095 103.724C274.539 101.994 275.262 100.263 275.262 98.0388V26.3601H266.595V93.837C266.595 96.5558 265.873 97.7917 264.91 97.7917H254.076V105.701Z" fill="white" stroke="white" stroke-width="20" stroke-miterlimit="10" stroke-linecap="round" stroke-linejoin="round"/>
<path d="M212.185 39.4606L217.722 35.5059H233.852L238.908 39.2134C239.871 39.9549 241.075 40.4492 242.76 40.4492H250.223V33.0342H245.408C244.445 33.0342 243.723 32.5399 242.76 31.5512L240.112 29.3268C238.908 28.3381 237.704 27.8438 236.26 27.8438H215.074C213.63 27.8438 212.185 28.3381 211.222 29.3268L208.093 32.0456C207.13 33.0342 206.167 33.5286 205.444 33.5286H199.907V40.9436H208.093C209.778 40.6964 210.981 40.2021 212.185 39.4606Z" fill="white" stroke="white" stroke-width="20" stroke-miterlimit="10" stroke-linecap="round" stroke-linejoin="round"/>
<path d="M343.151 98.5329V56.5143H353.984V107.184H362.892V56.5143H367.707V48.8521H343.151V38.4711H358.558C363.614 38.4711 366.022 35.9994 366.022 31.056V25.8655H357.355C357.355 28.8315 356.633 30.3145 354.947 30.3145H334.243V96.5556C334.243 97.2971 333.762 97.5443 333.04 97.5443H331.836V105.948H335.929C340.021 105.701 343.151 102.488 343.151 98.5329Z" fill="white" stroke="white" stroke-width="20" stroke-miterlimit="10" stroke-linecap="round" stroke-linejoin="round"/>
<path d="M330.636 31.304H314.506V25.6191H304.636V31.304H289.469V38.4719L330.636 38.7191V31.304Z" fill="white" stroke="white" stroke-width="20" stroke-miterlimit="10" stroke-linecap="round" stroke-linejoin="round"/>
<path d="M327.263 92.3542L325.578 81.2317H317.393L320.763 97.5448C321.485 101.005 322.93 102.735 325.337 102.735H331.115V94.3316H328.226C327.745 94.5788 327.263 93.8372 327.263 92.3542Z" fill="white" stroke="white" stroke-width="20" stroke-miterlimit="10" stroke-linecap="round" stroke-linejoin="round"/>
<path d="M292.354 93.0961C291.872 94.8262 291.391 95.8149 290.669 95.8149H288.983V104.219H293.317C296.446 104.219 298.372 102.241 299.335 98.0394L302.465 80.4905H294.28L292.354 93.0961Z" fill="white" stroke="white" stroke-width="20" stroke-miterlimit="10" stroke-linecap="round" stroke-linejoin="round"/>
<path d="M313.782 107.185V75.7944H329.912V67.6378H313.782V59.2341H331.598V52.0662H323.653L327.986 41.438H319.079L314.745 52.0662H305.116L301.023 41.438H292.116L296.208 51.819H288.745V59.2341H305.838V67.6378H289.949V75.7944H305.838V107.185H313.782Z" fill="white" stroke="white" stroke-width="20" stroke-miterlimit="10" stroke-linecap="round" stroke-linejoin="round"/>
<path d="M479.896 30.0679H469.304V44.1564H479.896V30.0679Z" fill="white" stroke="white" stroke-width="20" stroke-miterlimit="10" stroke-linecap="round" stroke-linejoin="round"/>
<path d="M479.896 48.3586H469.304V62.4473H479.896V48.3586Z" fill="white" stroke="white" stroke-width="20" stroke-miterlimit="10" stroke-linecap="round" stroke-linejoin="round"/>
<path d="M543.213 52.8071H519.379V43.6619H542.491V35.2582H519.379V26.3601H509.509V35.2582H499.638L502.286 29.079H493.379L489.768 36.9883C489.045 38.7185 488.082 39.2128 486.638 39.2128H483.749V47.6166H490.008C492.657 47.6166 494.582 46.3807 496.027 43.6619H509.509V52.8071H483.749V61.7051H543.454L543.213 52.8071Z" fill="white" stroke="white" stroke-width="20" stroke-miterlimit="10" stroke-linecap="round" stroke-linejoin="round"/>
<path d="M588.952 104.96H595.452C602.915 104.96 606.767 102.488 606.767 97.5448V58.4922H617.36V107.431H626.99V58.4922H633.49V49.347H606.767V39.4603H623.86C628.916 39.4603 631.323 36.9886 631.323 32.0453V26.8547H622.897C622.897 29.8208 621.934 31.3038 620.49 31.3038H598.582C598.1 31.3038 597.619 31.7981 597.619 32.2924V95.8146C597.619 96.3089 596.174 96.5561 593.526 96.5561H588.952V104.96Z" fill="white" stroke="white" stroke-width="20" stroke-miterlimit="10" stroke-linecap="round" stroke-linejoin="round"/>
<path d="M590.877 77.277V55.5262C590.877 52.0659 588.229 49.347 584.858 49.347H568.728V39.4603H584.858C589.914 39.4603 592.321 36.9886 592.321 32.0453V26.8547H583.414C583.414 29.8208 582.691 31.3038 581.006 31.3038H560.302C559.821 31.3038 559.339 31.7981 559.339 32.2924V96.8033C559.339 97.2976 558.617 97.5448 557.173 97.5448H554.524V105.948H559.58C565.358 105.948 568.488 103.477 568.488 98.5334V84.9392H582.932C588.469 84.9392 590.877 82.4675 590.877 77.277ZM582.21 74.8053C582.21 76.0411 581.488 76.5355 580.043 76.5355H568.728V57.7507H581.969L582.21 74.8053Z" fill="white" stroke="white" stroke-width="20" stroke-miterlimit="10" stroke-linecap="round" stroke-linejoin="round"/>
<path d="M37.6485 135.114H31.6299V167.987H37.6485V135.114Z" fill="white" stroke="white" stroke-width="20" stroke-miterlimit="10" stroke-linecap="round" stroke-linejoin="round"/>
<path d="M63.8919 135.114V157.112L49.9288 135.114H43.9102V167.987H49.9288V145.989L63.8919 167.987H70.1512V135.114H63.8919Z" fill="white" stroke="white" stroke-width="20" stroke-miterlimit="10" stroke-linecap="round" stroke-linejoin="round"/>
<path d="M95.9066 135.114V157.112L81.9434 135.114H75.9248V167.987H81.9434V146.237L95.9066 167.987H102.166V135.114H95.9066Z" fill="white" stroke="white" stroke-width="20" stroke-miterlimit="10" stroke-linecap="round" stroke-linejoin="round"/>
<path d="M129.854 136.597C127.446 135.114 124.798 134.373 121.668 134.373C118.539 134.373 115.65 135.114 113.483 136.597C111.076 138.08 109.39 140.058 108.187 142.529C106.983 145.001 106.261 148.214 106.261 151.427C106.261 154.888 106.983 157.854 108.187 160.325C109.39 162.797 111.316 165.022 113.483 166.257C115.891 167.74 118.539 168.482 121.668 168.482C124.798 168.482 127.687 167.74 129.854 166.257C132.261 164.774 133.946 162.797 135.15 160.325C136.354 157.854 137.076 154.641 137.076 151.427C137.076 147.967 136.354 145.001 135.15 142.529C134.187 140.058 132.261 138.08 129.854 136.597ZM129.854 157.607C129.131 159.337 128.168 160.573 126.724 161.561C125.28 162.55 123.594 163.044 121.668 162.797C119.742 162.797 118.057 162.303 116.613 161.314C115.168 160.325 114.205 159.09 113.483 157.359C112.761 155.629 112.52 153.652 112.52 151.427C112.52 149.203 112.761 147.226 113.483 145.495C114.205 143.765 115.168 142.529 116.613 141.541C118.057 140.552 119.742 140.058 121.668 140.305C123.594 140.552 125.28 140.799 126.724 141.788C128.168 142.777 129.131 144.012 129.854 145.743C130.576 147.473 130.817 149.45 130.817 151.675C130.817 153.899 130.335 155.876 129.854 157.607Z" fill="white" stroke="white" stroke-width="20" stroke-miterlimit="10" stroke-linecap="round" stroke-linejoin="round"/>
<path d="M159.465 135.114L151.28 162.303L143.336 135.114H137.076L146.706 167.987H155.854L165.725 135.114H159.465Z" fill="white" stroke="white" stroke-width="20" stroke-miterlimit="10" stroke-linecap="round" stroke-linejoin="round"/>
<path d="M172.948 135.114L163.077 167.987H169.336L171.262 161.067H183.3L185.466 167.987H191.726L181.855 135.114H172.948ZM173.188 155.382L177.522 141.046L181.855 155.382H173.188Z" fill="white" stroke="white" stroke-width="20" stroke-miterlimit="10" stroke-linecap="round" stroke-linejoin="round"/>
<path d="M216.282 135.114H190.041V141.046H200.152V168.235H206.171V141.046H216.282V135.114Z" fill="white" stroke="white" stroke-width="20" stroke-miterlimit="10" stroke-linecap="round" stroke-linejoin="round"/>
<path d="M225.91 135.114H219.892V167.987H225.91V135.114Z" fill="white" stroke="white" stroke-width="20" stroke-miterlimit="10" stroke-linecap="round" stroke-linejoin="round"/>
<path d="M254.318 136.597C251.91 135.114 249.262 134.373 246.132 134.373C243.003 134.373 240.114 135.114 237.947 136.597C235.78 138.08 233.854 140.058 232.651 142.529C231.447 145.001 230.725 148.214 230.725 151.427C230.725 154.888 231.447 157.854 232.651 160.325C233.854 162.797 235.78 165.022 237.947 166.257C240.114 167.493 243.003 168.482 246.132 168.482C249.262 168.482 252.151 167.74 254.318 166.257C256.725 164.774 258.41 162.797 259.614 160.325C260.818 157.854 261.54 154.641 261.54 151.427C261.54 147.967 260.818 145.001 259.614 142.529C258.41 140.058 256.484 138.08 254.318 136.597ZM254.077 157.607C253.355 159.337 252.392 160.573 250.947 161.561C249.503 162.55 247.817 163.044 245.891 162.797C243.966 162.797 242.28 162.303 240.836 161.314C239.391 160.325 238.428 159.09 237.706 157.359C236.984 155.629 236.743 153.652 236.743 151.427C236.743 149.203 236.984 147.226 237.706 145.495C238.428 143.765 239.391 142.529 240.836 141.541C242.28 140.552 243.966 140.058 245.891 140.305C247.817 140.305 249.503 140.799 250.947 141.788C252.392 142.777 253.355 144.012 254.077 145.743C254.799 147.473 255.04 149.45 255.04 151.675C255.04 153.899 254.799 155.876 254.077 157.607Z" fill="white" stroke="white" stroke-width="20" stroke-miterlimit="10" stroke-linecap="round" stroke-linejoin="round"/>
<path d="M285.616 135.361V157.112L271.653 135.114H265.394V168.235H271.653V146.237L285.616 168.235H291.635V135.361H285.616Z" fill="white" stroke="white" stroke-width="20" stroke-miterlimit="10" stroke-linecap="round" stroke-linejoin="round"/>
<path d="M305.835 168.236H312.094V154.889H322.928V148.709H312.094V141.541H325.576V135.362H306.076L305.835 168.236Z" fill="white" stroke="white" stroke-width="20" stroke-miterlimit="10" stroke-linecap="round" stroke-linejoin="round"/>
<path d="M351.095 136.844C348.687 135.361 346.039 134.619 342.91 134.619C339.78 134.619 336.891 135.361 334.724 136.844C332.317 138.327 330.632 140.304 329.428 142.776C328.224 145.248 327.502 148.461 327.502 151.674C327.502 155.134 328.224 158.1 329.428 160.572C330.632 163.044 332.558 165.268 334.724 166.504C337.132 167.987 339.78 168.728 342.91 168.728C346.039 168.728 348.928 167.987 351.095 166.504C353.502 165.021 355.187 163.044 356.391 160.572C357.595 158.1 358.317 154.887 358.317 151.674C358.317 148.214 357.595 145.248 356.391 142.776C355.187 140.057 353.502 138.08 351.095 136.844ZM351.095 157.606C350.373 159.336 349.41 160.572 347.965 161.561C346.521 162.549 344.835 163.044 342.91 162.796C340.984 162.796 339.298 162.302 337.854 161.313C336.409 160.325 335.446 159.089 334.724 157.359C334.002 155.629 333.761 153.651 333.761 151.427C333.761 149.202 334.002 147.225 334.724 145.495C335.446 143.765 336.409 142.529 337.854 141.54C339.298 140.551 340.984 140.057 342.91 140.304C344.835 140.304 346.521 140.799 347.965 141.787C349.41 142.776 350.373 144.012 351.095 145.742C351.817 147.472 352.058 149.449 352.058 151.674C352.058 153.898 351.576 156.123 351.095 157.606Z" fill="white" stroke="white" stroke-width="20" stroke-miterlimit="10" stroke-linecap="round" stroke-linejoin="round"/>
<path d="M385.041 153.157C386.486 151.18 386.967 148.955 386.967 145.989C386.967 144.259 386.726 142.529 386.004 141.046C385.523 139.563 384.56 138.327 383.356 137.339C382.152 136.35 380.467 135.608 378.541 135.361C378.059 135.361 377.578 135.114 377.097 135.114C376.615 135.114 376.134 135.114 375.893 135.114H362.411V167.987H368.43V156.865H375.171L380.467 167.987H387.208L381.43 155.629C382.874 155.382 384.078 154.393 385.041 153.157ZM368.43 141.046H375.652C375.893 141.046 376.374 141.046 376.615 141.046C377.097 141.046 377.337 141.046 377.578 141.293C378.3 141.54 379.022 141.788 379.504 142.529C379.985 143.271 380.226 143.765 380.467 144.259C380.708 145.001 380.708 145.495 380.708 146.237C380.708 146.731 380.708 147.472 380.467 148.214C380.226 148.955 379.985 149.45 379.504 149.944C379.022 150.438 378.541 150.933 377.578 151.18C377.337 151.18 376.856 151.427 376.615 151.427C376.134 151.427 375.893 151.427 375.652 151.427H368.43V141.046Z" fill="white" stroke="white" stroke-width="20" stroke-miterlimit="10" stroke-linecap="round" stroke-linejoin="round"/>
<path d="M428.376 157.855L422.357 135.362H416.098L410.079 157.855L404.061 135.362H397.561L406.95 168.236H412.968L419.228 145.991L425.487 168.236H431.265L440.895 135.362H434.394L428.376 157.855Z" fill="white" stroke="white" stroke-width="20" stroke-miterlimit="10" stroke-linecap="round" stroke-linejoin="round"/>
<path d="M450.042 162.551V153.9H462.079V148.215H450.042V141.047H464.727V135.362H443.782V168.236H464.727V162.551H450.042Z" fill="white" stroke="white" stroke-width="20" stroke-miterlimit="10" stroke-linecap="round" stroke-linejoin="round"/>
<path d="M476.282 162.551V135.362H470.264V168.236H490.005V162.551H476.282Z" fill="white" stroke="white" stroke-width="20" stroke-miterlimit="10" stroke-linecap="round" stroke-linejoin="round"/>
<path d="M499.877 162.551V135.362H493.858V168.236H513.599V162.551H499.877Z" fill="white" stroke="white" stroke-width="20" stroke-miterlimit="10" stroke-linecap="round" stroke-linejoin="round"/>
<path d="M536.469 150.934C537.191 150.44 537.913 149.945 538.394 149.204C539.117 147.968 539.598 146.485 539.598 144.508C539.598 143.025 539.357 141.541 538.635 140.306C537.913 138.823 536.95 137.587 535.506 136.845C534.061 135.857 532.135 135.362 529.968 135.362H517.209V168.236H531.413C533.58 168.236 535.506 167.741 536.95 167C538.394 166.258 539.357 165.022 540.08 163.539C540.802 162.056 541.043 160.326 541.043 158.349C541.043 156.619 540.561 154.889 539.598 153.406C538.635 152.17 537.672 151.428 536.469 150.934ZM523.228 141.047H529.728C530.931 141.047 531.654 141.294 532.376 142.036C533.098 142.777 533.339 143.519 533.339 144.508C533.339 145.249 533.098 145.991 532.857 146.485C532.617 146.979 532.135 147.474 531.654 147.721C531.172 147.968 530.45 147.968 529.728 147.968H523.228V141.047ZM534.302 160.326C533.82 161.068 533.339 161.562 532.857 161.809C532.135 162.056 531.413 162.304 530.691 162.304H523.228V153.9H530.691C531.654 153.9 532.376 154.147 533.098 154.394C533.82 154.641 534.302 155.136 534.543 155.877C534.783 156.372 535.024 157.113 535.024 157.855C534.783 159.09 534.543 159.832 534.302 160.326Z" fill="white" stroke="white" stroke-width="20" stroke-miterlimit="10" stroke-linecap="round" stroke-linejoin="round"/>
<path d="M550.913 162.551V154.147H563.191V148.215H550.913V141.294H565.839V135.362H544.895V168.236H565.839V162.551H550.913Z" fill="white" stroke="white" stroke-width="20" stroke-miterlimit="10" stroke-linecap="round" stroke-linejoin="round"/>
<path d="M577.157 135.362H571.139V168.236H577.157V135.362Z" fill="white" stroke="white" stroke-width="20" stroke-miterlimit="10" stroke-linecap="round" stroke-linejoin="round"/>
<path d="M603.636 135.362V157.36L589.672 135.362H583.413V168.236H589.672V146.485L603.636 168.236H609.654V135.362H603.636Z" fill="white" stroke="white" stroke-width="20" stroke-miterlimit="10" stroke-linecap="round" stroke-linejoin="round"/>
<path d="M644.084 151.921C644.084 151.427 644.084 151.18 644.084 150.932H632.528V155.629H637.584C637.343 157.359 636.621 158.842 635.898 159.83C635.176 160.819 634.213 161.808 633.01 162.302C631.806 162.796 630.602 163.044 629.158 163.044C627.232 163.044 625.546 162.549 624.102 161.561C622.657 160.572 621.695 159.336 620.972 157.606C620.25 155.876 620.009 153.898 620.009 151.674C620.009 149.449 620.25 147.472 620.972 145.742C621.695 144.012 622.657 142.776 624.102 141.787C625.546 140.799 627.232 140.304 629.158 140.551C631.324 140.551 632.769 141.046 634.213 142.282C635.417 143.517 636.38 145 637.102 146.978L643.361 145.989C642.639 142.282 640.954 139.563 638.547 137.585C636.139 135.608 633.009 134.619 628.917 134.619C626.028 134.619 623.621 135.361 621.213 136.597C618.806 137.833 617.12 139.81 615.676 142.529C614.231 145 613.75 148.214 613.75 151.921C613.75 154.64 614.231 157.112 614.954 159.336C615.676 161.561 616.88 163.291 618.324 164.774C619.769 166.257 621.454 167.245 623.139 167.987C625.065 168.729 626.991 168.976 628.917 169.223C632.047 169.223 634.695 168.481 636.861 167.246C639.028 165.763 640.954 164.032 642.158 161.561C643.361 159.089 644.084 156.37 644.084 153.157C644.084 152.663 644.084 152.415 644.084 151.921Z" fill="white" stroke="white" stroke-width="20" stroke-miterlimit="10" stroke-linecap="round" stroke-linejoin="round"/>
<path d="M538.155 88.8945C539.359 88.153 540.322 86.9172 540.322 85.4341V67.8852C540.322 65.6607 538.637 63.6833 536.47 63.6833H517.933C516.729 63.6833 515.525 64.1777 514.803 65.1664L513.599 66.8965L512.396 65.1664C511.673 64.1777 510.47 63.6833 509.266 63.6833H490.729C488.562 63.6833 486.636 65.4135 486.636 67.638V85.187C486.636 86.67 487.358 88.153 488.803 88.6473L505.414 98.0397H492.173C490.247 98.0397 487.84 97.5454 484.951 96.5567C482.062 95.3209 480.858 94.085 480.858 93.0964V67.1437H466.173V76.5361H471.951V95.0737C471.951 96.0624 470.025 97.051 466.414 97.7925V106.938C471.71 106.938 476.043 105.949 479.173 103.725C482.543 105.455 486.155 106.443 490.488 106.443H544.896V97.5454H521.544L538.155 88.8945ZM494.581 71.8399H507.099L510.229 75.7946C511.673 77.7719 514.803 77.7719 516.488 75.7946L519.618 71.8399H532.137V82.7153L513.118 93.3435L494.34 82.7153L494.581 71.8399Z" fill="white" stroke="white" stroke-width="20" stroke-miterlimit="10" stroke-linecap="round" stroke-linejoin="round"/>
<path d="M384.078 40.2018H384.8C386.967 40.2018 388.652 39.4603 389.856 37.7301H394.671V44.898H378.3V52.313H392.504C390.097 55.5262 388.893 57.0092 388.893 57.0092C388.171 57.5035 387.449 57.7507 386.486 57.7507H378.541V65.9072H389.856C391.782 65.9072 393.467 65.1657 394.43 63.6827L399.004 57.7507L402.856 63.6827C403.819 65.1657 405.745 65.9072 408.153 65.9072H418.023V57.7507H411.523C410.56 57.7507 409.597 57.5035 408.875 57.0092C408.875 57.0092 407.671 55.5262 405.264 52.313H418.505V47.1225L425.727 64.177C426.449 65.66 427.653 66.6487 429.338 66.6487H445.227C446.672 66.6487 448.116 65.66 448.838 64.177L457.746 43.4149V43.1678C458.709 40.4489 459.431 37.7301 459.431 34.7641C459.431 22.4057 449.561 12.0247 437.523 12.0247C426.931 12.0247 418.023 19.934 415.856 30.0679H393.467L395.393 25.866H389.134C386.967 25.866 384.8 27.1019 383.837 29.3264L383.115 30.8094C382.634 31.7981 381.912 32.5396 380.708 32.5396H377.578V34.0226C378.06 37.2358 380.708 40.2018 384.078 40.2018ZM437.764 19.6869C445.709 19.6869 452.209 26.3604 452.209 34.5169C452.209 36.4943 451.968 38.2244 451.246 40.2018L443.301 58.7393H441.616V49.347C444.264 47.864 446.19 44.898 446.19 41.6848C446.19 39.4603 444.505 37.7301 442.338 37.7301C440.172 37.7301 438.486 39.4603 438.486 41.6848C438.486 42.1791 438.246 42.4263 437.764 42.4263C437.283 42.4263 437.042 42.1791 437.042 41.6848C437.042 39.4603 435.357 37.7301 433.19 37.7301C431.023 37.7301 429.338 39.4603 429.338 41.6848C429.338 44.898 431.023 47.864 433.912 49.347V58.7393H432.227L424.282 40.2018C423.56 38.4716 423.319 36.4943 423.319 34.7641C423.319 26.3604 429.82 19.6869 437.764 19.6869ZM403.578 37.7301H415.856C416.097 39.4603 416.579 41.1904 417.301 42.9206L418.023 44.898H403.578V37.7301Z" fill="#231815"/>
<path d="M387.208 70.6038C383.838 70.6038 381.189 73.3226 381.189 76.783V99.7695C381.189 103.23 383.838 105.949 387.208 105.949H444.987C449.561 105.949 451.728 103.971 451.728 100.017V76.783C451.728 73.3226 449.079 70.6038 445.709 70.6038H387.208ZM442.579 95.8149C442.579 97.2979 441.857 97.7922 440.172 97.7922H390.338V91.8602H442.338L442.579 95.8149ZM442.579 84.6923H390.578V78.7603H442.579V84.6923Z" fill="#231815"/>
<path d="M37.4076 107.432V42.4269L43.4262 26.1138H33.5557L28.5001 40.2023C27.7779 42.1797 27.0556 42.9212 25.8519 42.9212H22V51.8193H27.7779V107.432H37.4076Z" fill="#231815"/>
<path d="M57.1493 98.7806L61.0012 80.7373H51.3714L48.7232 94.3315C48.001 96.3089 47.5195 97.0504 46.7973 97.0504H42.4639V105.207H49.9269C53.5381 105.207 55.9455 102.982 57.1493 98.7806Z" fill="#231815"/>
<path d="M53.2963 58.9862H66.778V68.1314H42.9443V76.5351H66.778V107.431H76.6485V76.5351H100.964V68.1314H76.6485V58.9862H92.0561C96.6303 58.9862 98.797 56.7617 98.797 52.3127V34.5166C98.797 31.0562 96.1488 28.3374 92.7784 28.3374H53.2963C49.9259 28.3374 47.2777 31.0562 47.2777 34.5166V53.0542C47.2777 56.2674 49.9259 58.9862 53.2963 58.9862ZM56.9075 35.9996H89.1672V48.8523C89.1672 50.5825 88.445 51.324 87.482 51.324H56.9075V35.9996Z" fill="#231815"/>
<path d="M96.1511 94.3315L92.2992 80.7373H82.4287L87.4843 99.2749C88.4473 103.23 90.8548 105.207 94.7067 105.207H101.207V96.8032H98.3178C97.3548 96.8032 96.6326 96.0617 96.1511 94.3315Z" fill="#231815"/>
<path d="M137.799 105.949H143.577C147.429 105.949 149.355 103.724 149.355 99.2753V60.4699H156.577V95.8149C156.577 96.8036 155.855 97.0508 154.892 97.0508H151.762V103.971H157.299C160.67 103.971 163.318 101.253 163.318 97.7923V60.4699C163.318 56.2681 160.188 53.0549 156.095 53.0549H149.355V42.6738H166.207L170.54 80.4905H165.725V88.8942H171.503L172.707 100.017C172.947 103.971 174.873 105.949 178.244 105.949H189.559V97.7923H181.614C181.133 97.7923 180.892 97.5451 180.892 96.8036L179.929 88.8942H182.337C184.022 88.8942 185.466 88.3999 186.67 87.164C187.874 85.9282 188.596 84.198 188.596 82.2207V49.3474H181.374V76.783C181.374 79.5018 180.892 80.7377 179.929 80.7377H178.966L174.392 42.921H189.559V35.506H186.911L185.707 27.8437H177.522L178.725 35.506H173.429L172.466 26.6079H164.521L165.484 35.506H147.669C144.299 35.506 141.651 38.2248 141.651 41.6852V96.8036C141.651 97.7923 141.41 98.0394 140.929 98.0394H137.799V105.949Z" fill="#231815"/>
<path d="M117.816 78.7603C114.446 78.7603 111.798 81.4791 111.798 84.9395V100.017C111.798 103.477 114.446 106.196 117.816 106.196H131.298C135.15 106.196 137.076 104.219 137.076 100.758V85.1866C137.076 81.7263 134.428 79.0074 131.057 79.0074L117.816 78.7603ZM129.131 96.5564C129.131 98.0394 128.409 98.5337 127.205 98.5337H119.742V86.1753H129.372L129.131 96.5564Z" fill="#231815"/>
<path d="M135.875 27.5959H112.522V34.5167H135.875V27.5959Z" fill="#231815"/>
<path d="M138.037 39.9546H110.833V48.1112H138.037V39.9546Z" fill="#231815"/>
<path d="M137.317 65.6602H111.798V73.3225H137.317V65.6602Z" fill="#231815"/>
<path d="M137.317 53.0542H111.798V60.7165H137.317V53.0542Z" fill="#231815"/>
<path d="M207.134 89.3886V98.5338C207.134 101.994 209.782 104.713 213.153 104.713H240.597C244.449 104.713 246.375 102.983 246.375 99.5225V90.6244C246.375 87.1641 243.727 84.4452 240.357 84.4452H213.153C213.393 83.4565 213.634 82.4679 213.634 80.9849V78.266H238.912C243.968 78.266 246.375 76.2887 246.375 72.334V52.0662C246.375 47.8644 243.246 44.6512 239.153 44.6512H231.449V40.2021H221.579V44.6512H205.208V79.5019C205.208 80.7377 204.486 81.232 203.041 81.232H199.671V89.6357H205.208C205.69 89.6357 206.412 89.6357 207.134 89.3886ZM215.319 91.3659H238.431V95.5678C238.431 96.8036 237.468 97.7923 236.264 97.7923H215.079L215.319 91.3659ZM213.634 51.5719H232.653H238.19V58.2454H213.634V51.5719ZM213.634 64.6718H238.19V69.6151C238.19 70.6038 237.468 70.851 236.023 70.851H213.634V64.6718Z" fill="#231815"/>
<path d="M261.3 32.0449H253.114V92.601H261.3V32.0449Z" fill="#231815"/>
<path d="M254.076 105.701H268.039C270.206 105.701 271.891 104.96 273.095 103.724C274.539 101.994 275.262 100.263 275.262 98.0388V26.3601H266.595V93.837C266.595 96.5558 265.873 97.7917 264.91 97.7917H254.076V105.701Z" fill="#231815"/>
<path d="M212.185 39.4606L217.722 35.5059H233.852L238.908 39.2134C239.871 39.9549 241.075 40.4492 242.76 40.4492H250.223V33.0342H245.408C244.445 33.0342 243.723 32.5399 242.76 31.5512L240.112 29.3268C238.908 28.3381 237.704 27.8438 236.26 27.8438H215.074C213.63 27.8438 212.185 28.3381 211.222 29.3268L208.093 32.0456C207.13 33.0342 206.167 33.5286 205.444 33.5286H199.907V40.9436H208.093C209.778 40.6964 210.981 40.2021 212.185 39.4606Z" fill="#231815"/>
<path d="M343.151 98.5329V56.5143H353.984V107.184H362.892V56.5143H367.707V48.8521H343.151V38.4711H358.558C363.614 38.4711 366.022 35.9994 366.022 31.056V25.8655H357.355C357.355 28.8315 356.633 30.3145 354.947 30.3145H334.243V96.5556C334.243 97.2971 333.762 97.5443 333.04 97.5443H331.836V105.948H335.929C340.021 105.701 343.151 102.488 343.151 98.5329Z" fill="#231815"/>
<path d="M330.636 31.304H314.506V25.6191H304.636V31.304H289.469V38.4719L330.636 38.7191V31.304Z" fill="#231815"/>
<path d="M327.263 92.3542L325.578 81.2317H317.393L320.763 97.5448C321.485 101.005 322.93 102.735 325.337 102.735H331.115V94.3316H328.226C327.745 94.5788 327.263 93.8372 327.263 92.3542Z" fill="#231815"/>
<path d="M292.354 93.0961C291.872 94.8262 291.391 95.8149 290.669 95.8149H288.983V104.219H293.317C296.446 104.219 298.372 102.241 299.335 98.0394L302.465 80.4905H294.28L292.354 93.0961Z" fill="#231815"/>
<path d="M313.782 107.185V75.7944H329.912V67.6378H313.782V59.2341H331.598V52.0662H323.653L327.986 41.438H319.079L314.745 52.0662H305.116L301.023 41.438H292.116L296.208 51.819H288.745V59.2341H305.838V67.6378H289.949V75.7944H305.838V107.185H313.782Z" fill="#231815"/>
<path d="M479.896 30.0679H469.304V44.1564H479.896V30.0679Z" fill="#231815"/>
<path d="M479.896 48.3586H469.304V62.4473H479.896V48.3586Z" fill="#231815"/>
<path d="M543.213 52.8071H519.379V43.6619H542.491V35.2582H519.379V26.3601H509.509V35.2582H499.638L502.286 29.079H493.379L489.768 36.9883C489.045 38.7185 488.082 39.2128 486.638 39.2128H483.749V47.6166H490.008C492.657 47.6166 494.582 46.3807 496.027 43.6619H509.509V52.8071H483.749V61.7051H543.454L543.213 52.8071Z" fill="#231815"/>
<path d="M588.952 104.96H595.452C602.915 104.96 606.767 102.488 606.767 97.5448V58.4922H617.36V107.431H626.99V58.4922H633.49V49.347H606.767V39.4603H623.86C628.916 39.4603 631.323 36.9886 631.323 32.0453V26.8547H622.897C622.897 29.8208 621.934 31.3038 620.49 31.3038H598.582C598.1 31.3038 597.619 31.7981 597.619 32.2924V95.8146C597.619 96.3089 596.174 96.5561 593.526 96.5561H588.952V104.96Z" fill="#231815"/>
<path d="M590.877 77.277V55.5262C590.877 52.0659 588.229 49.347 584.858 49.347H568.728V39.4603H584.858C589.914 39.4603 592.321 36.9886 592.321 32.0453V26.8547H583.414C583.414 29.8208 582.691 31.3038 581.006 31.3038H560.302C559.821 31.3038 559.339 31.7981 559.339 32.2924V96.8033C559.339 97.2976 558.617 97.5448 557.173 97.5448H554.524V105.948H559.58C565.358 105.948 568.488 103.477 568.488 98.5334V84.9392H582.932C588.469 84.9392 590.877 82.4675 590.877 77.277ZM582.21 74.8053C582.21 76.0411 581.488 76.5355 580.043 76.5355H568.728V57.7507H581.969L582.21 74.8053Z" fill="#231815"/>
<path d="M37.6485 135.114H31.6299V167.987H37.6485V135.114Z" fill="#231815"/>
<path d="M63.8919 135.114V157.112L49.9288 135.114H43.9102V167.987H49.9288V145.989L63.8919 167.987H70.1512V135.114H63.8919Z" fill="#231815"/>
<path d="M95.9066 135.114V157.112L81.9434 135.114H75.9248V167.987H81.9434V146.237L95.9066 167.987H102.166V135.114H95.9066Z" fill="#231815"/>
<path d="M129.854 136.597C127.446 135.114 124.798 134.373 121.668 134.373C118.539 134.373 115.65 135.114 113.483 136.597C111.076 138.08 109.39 140.058 108.187 142.529C106.983 145.001 106.261 148.214 106.261 151.427C106.261 154.888 106.983 157.854 108.187 160.325C109.39 162.797 111.316 165.022 113.483 166.257C115.891 167.74 118.539 168.482 121.668 168.482C124.798 168.482 127.687 167.74 129.854 166.257C132.261 164.774 133.946 162.797 135.15 160.325C136.354 157.854 137.076 154.641 137.076 151.427C137.076 147.967 136.354 145.001 135.15 142.529C134.187 140.058 132.261 138.08 129.854 136.597ZM129.854 157.607C129.131 159.337 128.168 160.573 126.724 161.561C125.28 162.55 123.594 163.044 121.668 162.797C119.742 162.797 118.057 162.303 116.613 161.314C115.168 160.325 114.205 159.09 113.483 157.359C112.761 155.629 112.52 153.652 112.52 151.427C112.52 149.203 112.761 147.226 113.483 145.495C114.205 143.765 115.168 142.529 116.613 141.541C118.057 140.552 119.742 140.058 121.668 140.305C123.594 140.552 125.28 140.799 126.724 141.788C128.168 142.777 129.131 144.012 129.854 145.743C130.576 147.473 130.817 149.45 130.817 151.675C130.817 153.899 130.335 155.876 129.854 157.607Z" fill="#231815"/>
<path d="M159.465 135.114L151.28 162.303L143.336 135.114H137.076L146.706 167.987H155.854L165.725 135.114H159.465Z" fill="#231815"/>
<path d="M172.948 135.114L163.077 167.987H169.336L171.262 161.067H183.3L185.466 167.987H191.726L181.855 135.114H172.948ZM173.188 155.382L177.522 141.046L181.855 155.382H173.188Z" fill="#231815"/>
<path d="M216.282 135.114H190.041V141.046H200.152V168.235H206.171V141.046H216.282V135.114Z" fill="#231815"/>
<path d="M225.91 135.114H219.892V167.987H225.91V135.114Z" fill="#231815"/>
<path d="M254.318 136.597C251.91 135.114 249.262 134.373 246.132 134.373C243.003 134.373 240.114 135.114 237.947 136.597C235.78 138.08 233.854 140.058 232.651 142.529C231.447 145.001 230.725 148.214 230.725 151.427C230.725 154.888 231.447 157.854 232.651 160.325C233.854 162.797 235.78 165.022 237.947 166.257C240.114 167.493 243.003 168.482 246.132 168.482C249.262 168.482 252.151 167.74 254.318 166.257C256.725 164.774 258.41 162.797 259.614 160.325C260.818 157.854 261.54 154.641 261.54 151.427C261.54 147.967 260.818 145.001 259.614 142.529C258.41 140.058 256.484 138.08 254.318 136.597ZM254.077 157.607C253.355 159.337 252.392 160.573 250.947 161.561C249.503 162.55 247.817 163.044 245.891 162.797C243.966 162.797 242.28 162.303 240.836 161.314C239.391 160.325 238.428 159.09 237.706 157.359C236.984 155.629 236.743 153.652 236.743 151.427C236.743 149.203 236.984 147.226 237.706 145.495C238.428 143.765 239.391 142.529 240.836 141.541C242.28 140.552 243.966 140.058 245.891 140.305C247.817 140.305 249.503 140.799 250.947 141.788C252.392 142.777 253.355 144.012 254.077 145.743C254.799 147.473 255.04 149.45 255.04 151.675C255.04 153.899 254.799 155.876 254.077 157.607Z" fill="#231815"/>
<path d="M285.616 135.361V157.112L271.653 135.114H265.394V168.235H271.653V146.237L285.616 168.235H291.635V135.361H285.616Z" fill="#231815"/>
<path d="M305.835 168.236H312.094V154.889H322.928V148.709H312.094V141.541H325.576V135.362H306.076L305.835 168.236Z" fill="#231815"/>
<path d="M351.095 136.844C348.687 135.361 346.039 134.619 342.91 134.619C339.78 134.619 336.891 135.361 334.724 136.844C332.317 138.327 330.632 140.304 329.428 142.776C328.224 145.248 327.502 148.461 327.502 151.674C327.502 155.134 328.224 158.1 329.428 160.572C330.632 163.044 332.558 165.268 334.724 166.504C337.132 167.987 339.78 168.728 342.91 168.728C346.039 168.728 348.928 167.987 351.095 166.504C353.502 165.021 355.187 163.044 356.391 160.572C357.595 158.1 358.317 154.887 358.317 151.674C358.317 148.214 357.595 145.248 356.391 142.776C355.187 140.057 353.502 138.08 351.095 136.844ZM351.095 157.606C350.373 159.336 349.41 160.572 347.965 161.561C346.521 162.549 344.835 163.044 342.91 162.796C340.984 162.796 339.298 162.302 337.854 161.313C336.409 160.325 335.446 159.089 334.724 157.359C334.002 155.629 333.761 153.651 333.761 151.427C333.761 149.202 334.002 147.225 334.724 145.495C335.446 143.765 336.409 142.529 337.854 141.54C339.298 140.551 340.984 140.057 342.91 140.304C344.835 140.304 346.521 140.799 347.965 141.787C349.41 142.776 350.373 144.012 351.095 145.742C351.817 147.472 352.058 149.449 352.058 151.674C352.058 153.898 351.576 156.123 351.095 157.606Z" fill="#231815"/>
<path d="M385.041 153.157C386.486 151.18 386.967 148.955 386.967 145.989C386.967 144.259 386.726 142.529 386.004 141.046C385.523 139.563 384.56 138.327 383.356 137.339C382.152 136.35 380.467 135.608 378.541 135.361C378.059 135.361 377.578 135.114 377.097 135.114C376.615 135.114 376.134 135.114 375.893 135.114H362.411V167.987H368.43V156.865H375.171L380.467 167.987H387.208L381.43 155.629C382.874 155.382 384.078 154.393 385.041 153.157ZM368.43 141.046H375.652C375.893 141.046 376.374 141.046 376.615 141.046C377.097 141.046 377.337 141.046 377.578 141.293C378.3 141.54 379.022 141.788 379.504 142.529C379.985 143.271 380.226 143.765 380.467 144.259C380.708 145.001 380.708 145.495 380.708 146.237C380.708 146.731 380.708 147.472 380.467 148.214C380.226 148.955 379.985 149.45 379.504 149.944C379.022 150.438 378.541 150.933 377.578 151.18C377.337 151.18 376.856 151.427 376.615 151.427C376.134 151.427 375.893 151.427 375.652 151.427H368.43V141.046Z" fill="#231815"/>
<path d="M428.376 157.855L422.357 135.362H416.098L410.079 157.855L404.061 135.362H397.561L406.95 168.236H412.968L419.228 145.991L425.487 168.236H431.265L440.895 135.362H434.394L428.376 157.855Z" fill="#231815"/>
<path d="M450.042 162.551V153.9H462.079V148.215H450.042V141.047H464.727V135.362H443.782V168.236H464.727V162.551H450.042Z" fill="#231815"/>
<path d="M476.282 162.551V135.362H470.264V168.236H490.005V162.551H476.282Z" fill="#231815"/>
<path d="M499.877 162.551V135.362H493.858V168.236H513.599V162.551H499.877Z" fill="#231815"/>
<path d="M536.469 150.934C537.191 150.44 537.913 149.945 538.394 149.204C539.117 147.968 539.598 146.485 539.598 144.508C539.598 143.025 539.357 141.541 538.635 140.306C537.913 138.823 536.95 137.587 535.506 136.845C534.061 135.857 532.135 135.362 529.968 135.362H517.209V168.236H531.413C533.58 168.236 535.506 167.741 536.95 167C538.394 166.258 539.357 165.022 540.08 163.539C540.802 162.056 541.043 160.326 541.043 158.349C541.043 156.619 540.561 154.889 539.598 153.406C538.635 152.17 537.672 151.428 536.469 150.934ZM523.228 141.047H529.728C530.931 141.047 531.654 141.294 532.376 142.036C533.098 142.777 533.339 143.519 533.339 144.508C533.339 145.249 533.098 145.991 532.857 146.485C532.617 146.979 532.135 147.474 531.654 147.721C531.172 147.968 530.45 147.968 529.728 147.968H523.228V141.047ZM534.302 160.326C533.82 161.068 533.339 161.562 532.857 161.809C532.135 162.056 531.413 162.304 530.691 162.304H523.228V153.9H530.691C531.654 153.9 532.376 154.147 533.098 154.394C533.82 154.641 534.302 155.136 534.543 155.877C534.783 156.372 535.024 157.113 535.024 157.855C534.783 159.09 534.543 159.832 534.302 160.326Z" fill="#231815"/>
<path d="M550.913 162.551V154.147H563.191V148.215H550.913V141.294H565.839V135.362H544.895V168.236H565.839V162.551H550.913Z" fill="#231815"/>
<path d="M577.157 135.362H571.139V168.236H577.157V135.362Z" fill="#231815"/>
<path d="M603.636 135.362V157.36L589.672 135.362H583.413V168.236H589.672V146.485L603.636 168.236H609.654V135.362H603.636Z" fill="#231815"/>
<path d="M644.084 151.921C644.084 151.427 644.084 151.18 644.084 150.932H632.528V155.629H637.584C637.343 157.359 636.621 158.842 635.898 159.83C635.176 160.819 634.213 161.808 633.01 162.302C631.806 162.796 630.602 163.044 629.158 163.044C627.232 163.044 625.546 162.549 624.102 161.561C622.657 160.572 621.695 159.336 620.972 157.606C620.25 155.876 620.009 153.898 620.009 151.674C620.009 149.449 620.25 147.472 620.972 145.742C621.695 144.012 622.657 142.776 624.102 141.787C625.546 140.799 627.232 140.304 629.158 140.551C631.324 140.551 632.769 141.046 634.213 142.282C635.417 143.517 636.38 145 637.102 146.978L643.361 145.989C642.639 142.282 640.954 139.563 638.547 137.585C636.139 135.608 633.009 134.619 628.917 134.619C626.028 134.619 623.621 135.361 621.213 136.597C618.806 137.833 617.12 139.81 615.676 142.529C614.231 145 613.75 148.214 613.75 151.921C613.75 154.64 614.231 157.112 614.954 159.336C615.676 161.561 616.88 163.291 618.324 164.774C619.769 166.257 621.454 167.245 623.139 167.987C625.065 168.729 626.991 168.976 628.917 169.223C632.047 169.223 634.695 168.481 636.861 167.246C639.028 165.763 640.954 164.032 642.158 161.561C643.361 159.089 644.084 156.37 644.084 153.157C644.084 152.663 644.084 152.415 644.084 151.921Z" fill="#231815"/>
<path d="M538.155 88.8945C539.359 88.153 540.322 86.9172 540.322 85.4341V67.8852C540.322 65.6607 538.637 63.6833 536.47 63.6833H517.933C516.729 63.6833 515.525 64.1777 514.803 65.1664L513.599 66.8965L512.396 65.1664C511.673 64.1777 510.47 63.6833 509.266 63.6833H490.729C488.562 63.6833 486.636 65.4135 486.636 67.638V85.187C486.636 86.67 487.358 88.153 488.803 88.6473L505.414 98.0397H492.173C490.247 98.0397 487.84 97.5454 484.951 96.5567C482.062 95.3209 480.858 94.085 480.858 93.0964V67.1437H466.173V76.5361H471.951V95.0737C471.951 96.0624 470.025 97.051 466.414 97.7925V106.938C471.71 106.938 476.043 105.949 479.173 103.725C482.543 105.455 486.155 106.443 490.488 106.443H544.896V97.5454H521.544L538.155 88.8945ZM494.581 71.8399H507.099L510.229 75.7946C511.673 77.7719 514.803 77.7719 516.488 75.7946L519.618 71.8399H532.137V82.7153L513.118 93.3435L494.34 82.7153L494.581 71.8399Z" fill="#231815"/>
</g>
<defs>
<filter id="filter0_dd_618_186" x="0" y="0.0246582" width="666.084" height="201.198" filterUnits="userSpaceOnUse" color-interpolation-filters="sRGB">
<feFlood flood-opacity="0" result="BackgroundImageFix"/>
<feColorMatrix in="SourceAlpha" type="matrix" values="0 0 0 0 0 0 0 0 0 0 0 0 0 0 0 0 0 0 127 0" result="hardAlpha"/>
<feOffset dy="10"/>
<feGaussianBlur stdDeviation="6"/>
<feComposite in2="hardAlpha" operator="out"/>
<feColorMatrix type="matrix" values="0 0 0 0 0 0 0 0 0 0 0 0 0 0 0 0 0 0 0.16 0"/>
<feBlend mode="normal" in2="BackgroundImageFix" result="effect1_dropShadow_618_186"/>
<feColorMatrix in="SourceAlpha" type="matrix" values="0 0 0 0 0 0 0 0 0 0 0 0 0 0 0 0 0 0 127 0" result="hardAlpha"/>
<feOffset dy="4"/>
<feGaussianBlur stdDeviation="2"/>
<feComposite in2="hardAlpha" operator="out"/>
<feColorMatrix type="matrix" values="0 0 0 0 0.47451 0 0 0 0 0 0 0 0 0 0 0 0 0 0.12 0"/>
<feBlend mode="normal" in2="effect1_dropShadow_618_186" result="effect2_dropShadow_618_186"/>
<feBlend mode="normal" in="SourceGraphic" in2="effect2_dropShadow_618_186" result="shape"/>
</filter>
</defs>
</svg>
